<svg xmlns="http://www.w3.org/2000/svg" xmlns:xlink="http://www.w3.org/1999/xlink" id="Layer_1" x="0" y="0" version="1.1" viewBox="0 0 1000 1000" xml:space="preserve" style="enable-background:new 0 0 1000 1000"><style type="text/css">.st0{fill:#0033ad}</style><g id="Layer_2_1_"><g id="Layer_1-2"><path d="M274.1,496.7c-2.1,37.1,26.4,68.8,63.5,70.9c1.3,0,2.7,0,4,0c37.3,0,67.5-30.1,67.2-67.5 c0-37.3-30.1-67.5-67.5-67.2C305.6,432.9,276,460.9,274.1,496.7z" class="st0"/><path d="M23,479.3c-12-0.8-22.4,8.5-22.9,20.5s8.5,22.4,20.5,22.9c12,0.8,22.1-8.5,22.9-20.5 C44.3,490.3,35,480.1,23,479.3L23,479.3z" class="st0"/><path d="M269.9,105.8c10.7-5.3,14.9-18.7,9.6-29.3c-5.3-10.7-18.7-14.9-29.3-9.6s-14.9,18.4-9.6,29.1 C245.9,106.8,258.9,111.4,269.9,105.8C269.6,105.8,269.9,105.8,269.9,105.8z" class="st0"/><path d="M338.1,224.9c16.5-8.3,23.2-28.5,14.9-45.1c-8.3-16.5-28.5-23.2-45.1-14.9c-16.5,8.3-23.2,28.5-14.9,45.1 C301.3,226.5,321.6,233.2,338.1,224.9z" class="st0"/><path d="M108.3,306.8c12.8,8.3,29.9,4.8,38.4-8c8.3-12.8,4.8-29.9-8-38.4c-12.8-8.3-29.9-4.8-38.4,8l0,0 C91.8,281.2,95.5,298.5,108.3,306.8z" class="st0"/><path d="M149.1,467.3c-18.7-1.1-34.4,13.1-35.5,31.7c-1.1,18.7,13.1,34.4,31.7,35.5c18.7,1.1,34.4-13.1,35.5-31.7l0,0 C181.9,484.4,167.7,468.4,149.1,467.3z" class="st0"/><path d="M112,693.2c-13.6,6.9-19.2,23.5-12.3,37.3c6.9,13.6,23.5,19.2,37.3,12.3c13.6-6.9,19.2-23.5,12.3-37.3l0,0 C142.4,691.9,125.6,686.3,112,693.2L112,693.2z" class="st0"/><path d="M242.7,397.7c18.4,12,42.9,6.9,54.7-11.5c12-18.4,6.9-42.9-11.5-54.7c-18.4-12-42.9-6.9-54.7,11.5 C219.2,361.2,224.3,385.7,242.7,397.7L242.7,397.7z" class="st0"/><path d="M657.3,222.3c15.5,10.1,36.5,5.9,46.7-9.6c10.1-15.5,5.9-36.5-9.6-46.7c-15.5-10.1-36.5-5.9-46.7,9.6l0,0 C637.3,191.3,641.6,212.1,657.3,222.3L657.3,222.3z" class="st0"/><path d="M726.1,103.6c10.1,6.7,23.5,3.7,30.1-6.4s3.7-23.5-6.4-30.1c-10.1-6.7-23.5-3.7-30.1,6.1 C713.3,83.4,716.3,97,726.1,103.6L726.1,103.6z" class="st0"/><path d="M662.4,432.4c-37.1-2.1-69.1,26.4-70.9,63.5c-2.1,37.1,26.4,69.1,63.5,70.9c1.3,0,2.7,0,3.7,0 c37.1,0,67.2-30.1,67.2-67.5C726.1,463.9,698.1,434.3,662.4,432.4L662.4,432.4z" class="st0"/><path d="M360.3,392.9c11.5,22.7,34.7,37.1,60.3,37.1c37.1,0,67.2-30.1,67.2-67.5c0-10.4-2.4-20.8-7.2-30.4 c-16.8-33.3-57.3-46.7-90.4-29.9C356.8,319.3,343.5,359.9,360.3,392.9L360.3,392.9z" class="st0"/><path d="M888,306.8c13.6-6.9,18.9-23.7,12-37.3c-6.9-13.6-23.7-18.9-37.3-12c-13.6,6.9-18.9,23.5-12.3,37.1 C857.6,308.1,874.1,313.7,888,306.8L888,306.8z" class="st0"/><path d="M717.3,328.1c-19.5,9.9-27.5,33.6-17.6,53.1c9.9,19.5,33.6,27.5,53.1,17.6s27.5-33.6,17.6-53.1 C760.5,326.3,736.8,318.5,717.3,328.1z" class="st0"/><path d="M497.3,93.5c15.2,0.8,28.3-10.9,29.3-26.1S515.7,39.1,500.5,38c-15.2-0.8-28.3,10.7-29.3,25.9 C470.4,79.4,482.1,92.4,497.3,93.5L497.3,93.5z" class="st0"/><path d="M497.1,267.6c21.9,1.3,40.5-15.5,41.6-37.3c1.3-21.9-15.5-40.5-37.3-41.6c-21.9-1.3-40.5,15.5-41.6,37.3 C458.7,247.9,475.2,266.5,497.1,267.6L497.1,267.6z" class="st0"/><path d="M282.7,671.9c19.5-9.9,27.5-33.6,17.6-53.1c-9.9-19.5-33.6-27.5-53.1-17.6c-19.5,9.9-27.5,33.6-17.6,53.1 S263.2,681.7,282.7,671.9z" class="st0"/><path d="M522.7,325.5c-20.3,31.2-11.7,72.8,19.5,93.1s72.8,11.7,93.1-19.5c20.3-31.2,11.7-72.8-19.5-93.1 c-10.9-7.2-23.7-10.9-36.8-10.9C556.3,295.1,535.2,306.5,522.7,325.5z" class="st0"/><path d="M639.7,607.1c-16.8-33.3-57.3-46.7-90.4-29.9c-33.3,16.8-46.7,57.3-29.9,90.4c16.8,33.3,57.3,46.7,90.4,29.9 l0,0c33.1-16.5,46.7-56.5,30.1-89.9C640,607.3,640,607.3,639.7,607.1z" class="st0"/><path d="M757.3,602.3c-18.4-12-42.9-6.9-54.7,11.5c-12,18.4-6.9,42.9,11.5,54.7c18.4,12,42.9,6.9,54.7-11.5 C780.8,638.8,775.7,614.3,757.3,602.3L757.3,602.3z" class="st0"/><path d="M886.4,501.2c1.1-18.7-13.1-34.4-31.7-35.5s-34.4,13.1-35.5,31.7c-1.1,18.7,13.1,34.4,31.7,35.5l0,0 C869.3,534,885.3,519.6,886.4,501.2z" class="st0"/><path d="M979.4,477.2c-12-0.8-22.4,8.5-22.9,20.5c-0.5,12,8.5,22.4,20.5,22.9c12,0.8,22.1-8.5,22.9-20.5 C1000.5,488.1,991.4,478,979.4,477.2z" class="st0"/><path d="M891.7,693.2c-12.8-8.3-29.9-4.8-38.4,8c-8.3,12.8-4.8,29.9,8,38.4c12.8,8.3,29.9,4.8,38.4-8 C908.2,718.8,904.5,701.5,891.7,693.2L891.7,693.2z" class="st0"/><path d="M273.6,896.4c-10.1-6.7-23.5-3.7-30.1,6.1c-6.7,10.1-3.7,23.5,6.1,30.1c10.1,6.7,23.5,3.7,30.1-6.1l0,0 C286.7,916.6,283.7,903,273.6,896.4z" class="st0"/><path d="M730.1,894.2c-10.7,5.3-14.9,18.7-9.6,29.3c5.3,10.7,18.7,14.9,29.3,9.6c10.7-5.3,14.9-18.4,9.6-29.1 C754.1,893.2,741.1,888.6,730.1,894.2C730.4,894.2,730.1,894.2,730.1,894.2z" class="st0"/><path d="M477.3,674.5c20.3-31.2,11.7-72.8-19.5-93.3c-31.2-20.3-72.8-11.7-93.3,19.5C344,631.9,352.8,673.5,384,694 c10.9,7.2,23.7,10.9,36.8,10.9C443.7,705.2,464.8,693.7,477.3,674.5z" class="st0"/><path d="M342.7,777.7c-15.5-10.1-36.5-5.9-46.7,9.6c-10.1,15.5-5.9,36.5,9.6,46.7c15.5,10.1,36.5,5.9,46.7-9.6l0,0 C362.7,808.9,358.4,787.9,342.7,777.7z" class="st0"/><path d="M499.7,906.5c-15.2-0.8-28.3,10.9-29.3,26.1c-1.1,15.2,10.9,28.3,26.1,29.3c15.2,0.8,28.3-10.7,29.3-25.9 C526.7,920.6,514.9,907.6,499.7,906.5L499.7,906.5z" class="st0"/><path d="M500,732.4c-21.9-1.3-40.5,15.5-41.6,37.3c-1.3,21.9,15.5,40.5,37.3,41.6c21.9,1.1,40.5-15.5,41.6-37.3 C538.7,752.4,521.9,733.5,500,732.4L500,732.4z" class="st0"/><path d="M661.9,775.1c-16.5,8.5-23.2,28.8-14.7,45.3c8.5,16.5,28.8,23.2,45.3,14.7c16.5-8.3,23.2-28.5,14.9-45.1 C698.9,773.5,678.7,766.5,661.9,775.1L661.9,775.1z" class="st0"/></g></g></svg>